<?xml version="1.0" encoding="iso-8859-1"?>
<!-- Generator: Adobe Illustrator 16.0.0, SVG Export Plug-In . SVG Version: 6.00 Build 0)  -->
<!DOCTYPE svg PUBLIC "-//W3C//DTD SVG 1.1//EN" "http://www.w3.org/Graphics/SVG/1.1/DTD/svg11.dtd">
<svg version="1.1" id="Capa_1" xmlns="http://www.w3.org/2000/svg" xmlns:xlink="http://www.w3.org/1999/xlink" x="0px" y="0px"
	 width="311.901px" height="311.901px" viewBox="0 0 311.901 311.901" style="enable-background:new 0 0 311.901 311.901;"
	 xml:space="preserve">
<g>
	<path d="M298.673,30.315H247.98V10.473h-50.699v19.843h-82.659V10.473H63.924v19.843H13.229C5.924,30.315,0,36.236,0,43.535V288.2
		c0,7.308,5.924,13.229,13.229,13.229h285.444c7.308,0,13.229-5.921,13.229-13.229V43.535
		C311.901,36.236,305.969,30.315,298.673,30.315z M114.623,123.993H98.088v16.528c0,4.875-3.948,8.817-8.812,8.817
		c-4.882,0-8.83-3.942-8.83-8.817v-16.528H63.918c-4.87,0-8.824-3.948-8.824-8.824s3.954-8.818,8.824-8.818h16.528V89.816
		c0-4.87,3.948-8.818,8.83-8.818c4.864,0,8.812,3.948,8.812,8.818v16.534h16.534c4.864,0,8.818,3.942,8.818,8.818
		S119.486,123.993,114.623,123.993z M247.975,123.993h-50.699c-4.869,0-8.82-3.948-8.82-8.824s3.951-8.818,8.82-8.818h50.699
		c4.863,0,8.814,3.942,8.814,8.818S252.838,123.993,247.975,123.993z"/>
</g>
<g>
</g>
<g>
</g>
<g>
</g>
<g>
</g>
<g>
</g>
<g>
</g>
<g>
</g>
<g>
</g>
<g>
</g>
<g>
</g>
<g>
</g>
<g>
</g>
<g>
</g>
<g>
</g>
<g>
</g>
</svg>
