<?xml version="1.0" encoding="iso-8859-1"?>
<!-- Generator: Adobe Illustrator 19.0.0, SVG Export Plug-In . SVG Version: 6.00 Build 0)  -->
<svg version="1.1" id="Layer_1" xmlns="http://www.w3.org/2000/svg" xmlns:xlink="http://www.w3.org/1999/xlink" x="0px" y="0px"
	 viewBox="0 0 511.997 511.997" style="enable-background:new 0 0 511.997 511.997;" xml:space="preserve">
<g transform="translate(0 -1)">
	<g>
		<g>
			<path d="M471.835,203.299c3.337,3.337,8.73,3.337,12.066,0c3.336-3.328,3.336-8.73,0-12.066l-17.067-17.067
				c-2.884-2.876-7.398-3.319-10.769-1.067l-25.421,16.956L300.46,271.421l-37.897-45.483c-1.63-1.946-4.028-3.072-6.562-3.072
				h-85.333v-25.6h17.067c4.719,0,8.533-3.814,8.533-8.533c0-4.71-3.814-8.533-8.533-8.533h-51.2c-4.719,0-8.533,3.823-8.533,8.533
				c0,4.719,3.814,8.533,8.533,8.533h17.067v25.6H85.335v-25.6c0-2.85-1.425-5.513-3.797-7.1l-51.2-34.133
				c-2.133-1.425-4.796-1.818-7.27-1.05c-2.449,0.768-4.429,2.594-5.393,4.983L0.607,202.634c-1.527,3.84-0.094,8.218,3.405,10.411
				l64.256,40.158v97.664c0,4.719,3.814,8.533,8.533,8.533h256c2.85,0,5.513-1.425,7.1-3.797l101.453-152.175l18.364-12.245
				L471.835,203.299z"/>
			<path d="M507.551,301.511l-2.765-4.352c-3.721-5.828-7.236-11.341-10.146-17.161l-9.139-18.278
				c-2.901-5.786-12.382-5.786-15.266,0l-7.322,14.652c-3.891,7.782-7.919,15.821-13.15,22.596
				c-3.584,4.625-5.53,9.668-5.948,15.428c-1.195,16.683,10.607,32.375,26.88,35.738c2.372,0.486,4.762,0.725,7.134,0.725
				c7.842,0,15.445-2.645,21.589-7.646c7.996-6.519,12.578-16.171,12.578-26.479C511.997,311.316,510.504,306.187,507.551,301.511z"
				/>
		</g>
	</g>
</g>
<g>
</g>
<g>
</g>
<g>
</g>
<g>
</g>
<g>
</g>
<g>
</g>
<g>
</g>
<g>
</g>
<g>
</g>
<g>
</g>
<g>
</g>
<g>
</g>
<g>
</g>
<g>
</g>
<g>
</g>
</svg>
