<?xml version="1.0" encoding="utf-8"?>
<!-- Svg Vector Icons : http://www.onlinewebfonts.com/icon -->
<!DOCTYPE svg PUBLIC "-//W3C//DTD SVG 1.1//EN" "http://www.w3.org/Graphics/SVG/1.1/DTD/svg11.dtd">
<svg version="1.1" xmlns="http://www.w3.org/2000/svg" xmlns:xlink="http://www.w3.org/1999/xlink" x="0px" y="0px" viewBox="0 0 1000 1000" enable-background="new 0 0 1000 1000" xml:space="preserve">
<metadata> Svg Vector Icons : http://www.onlinewebfonts.com/icon </metadata>
<g><path d="M500,10C228.9,10,10,228.9,10,500c0,271.1,218.9,490,490,490c271.1,0,490-218.9,490-490C990,228.9,771.1,10,500,10z M500,957.3C248.5,957.3,42.7,751.5,42.7,500C42.7,248.5,248.5,42.7,500,42.7c251.5,0,457.3,205.8,457.3,457.3C957.3,751.5,751.5,957.3,500,957.3z"/><path d="M206,516.3c0,36.1,29.3,65.3,65.3,65.3c36.1,0,65.3-29.3,65.3-65.3l0,0c0-36.1-29.3-65.3-65.3-65.3C235.3,451,206,480.3,206,516.3z"/><path d="M434.7,516.3c0,36.1,29.3,65.3,65.3,65.3c36.1,0,65.3-29.3,65.3-65.3c0-36.1-29.3-65.3-65.3-65.3C463.9,451,434.7,480.3,434.7,516.3z"/><path d="M663.3,516.3c0,36.1,29.3,65.3,65.3,65.3c36.1,0,65.3-29.3,65.3-65.3l0,0c0-36.1-29.3-65.3-65.3-65.3C692.6,451,663.3,480.3,663.3,516.3z"/></g>
</svg>